<?xml version="1.0" standalone="no"?>
<!DOCTYPE svg PUBLIC "-//W3C//DTD SVG 20010904//EN"
 "http://www.w3.org/TR/2001/REC-SVG-20010904/DTD/svg10.dtd">
<svg version="1.0" xmlns="http://www.w3.org/2000/svg"
 width="1884.000000pt" height="1884.000000pt" viewBox="0 0 1884.000000 1884.000000"
 preserveAspectRatio="xMidYMid meet">
<metadata>
Created by potrace 1.11, written by Peter Selinger 2001-2013
</metadata>
<g transform="translate(0.000000,1884.000000) scale(0.100000,-0.100000)"
fill="#000000" stroke="none">
<path d="M8961 18819 c-2032 -101 -3975 -860 -5551 -2168 -306 -253 -698 -629
-963 -921 -1390 -1534 -2230 -3448 -2411 -5495 -52 -581 -45 -1249 19 -1840
248 -2301 1356 -4446 3105 -6015 1452 -1302 3284 -2126 5180 -2329 392 -42
483 -46 1045 -46 576 0 710 7 1135 56 2067 237 4016 1167 5494 2619 235 231
399 404 567 601 1113 1296 1848 2858 2129 4523 102 604 136 1071 127 1726 -6
397 -11 504 -43 825 -182 1858 -932 3653 -2129 5090 -276 332 -703 772 -1010
1040 -1442 1262 -3177 2041 -5065 2274 -506 63 -1118 85 -1629 60z m1031
-2114 c538 -21 1203 -166 1809 -393 1286 -484 2379 -1227 3191 -2172 810 -942
1372 -2162 1632 -3546 75 -396 91 -606 91 -1179 0 -475 0 -481 -22 -528 -13
-27 -27 -46 -31 -43 -5 3 -12 29 -16 58 -25 196 -119 637 -192 900 -278 1008
-718 1812 -1425 2603 -132 149 -449 460 -589 581 -1064 913 -2340 1437 -3870
1590 -221 22 -803 30 -1026 15 -816 -57 -1533 -248 -2249 -601 -975 -480
-1773 -1167 -2316 -1995 -461 -701 -766 -1507 -914 -2405 -136 -833 -85 -1647
151 -2383 298 -929 986 -1896 1775 -2494 542 -411 1187 -697 1864 -827 358
-69 610 -90 1040 -90 457 0 684 24 1035 110 1413 345 2594 1452 2979 2792 86
302 130 598 138 932 13 553 -78 989 -302 1445 -146 299 -300 517 -535 759
-536 550 -1261 894 -2043 967 -167 15 -548 7 -677 -15 -128 -23 -266 -58 -389
-101 -694 -242 -1204 -837 -1357 -1583 -85 -413 21 -790 299 -1059 135 -131
288 -220 482 -279 82 -26 104 -28 250 -29 185 0 254 15 411 89 117 56 198 111
289 198 98 93 141 149 225 302 139 251 236 336 387 336 72 0 153 -28 306 -108
272 -141 426 -314 503 -567 26 -84 28 -101 28 -275 0 -157 -3 -199 -22 -279
-81 -338 -214 -608 -411 -835 -307 -354 -832 -608 -1396 -676 -142 -18 -426
-15 -574 4 -861 114 -1631 646 -2058 1421 -346 628 -431 1482 -227 2299 273
1092 1021 2005 2012 2456 403 183 764 277 1292 337 225 25 864 25 1070 0 552
-69 1000 -197 1455 -418 610 -295 1211 -774 1629 -1296 401 -500 683 -1142
795 -1808 100 -590 123 -1244 65 -1805 -162 -1569 -934 -2880 -2289 -3888
-843 -626 -1661 -960 -2627 -1069 -221 -25 -787 -25 -1023 0 -769 82 -1566
325 -2395 728 -1312 639 -2305 1528 -3005 2689 -344 571 -614 1212 -809 1921
-299 1088 -350 1982 -170 2949 129 689 384 1391 751 2071 1191 2206 3054 3572
5554 4073 485 97 902 141 1224 130 50 -2 152 -6 227 -9z"/>
</g>
</svg>
